<?xml version="1.0" encoding="UTF-8"?>
<svg width="850px" height="850px" viewBox="0 0 850 850" version="1.1" xmlns="http://www.w3.org/2000/svg" xmlns:xlink="http://www.w3.org/1999/xlink">
    <!-- Generator: Sketch 3.8.3 (29802) - http://www.bohemiancoding.com/sketch -->
    <title>Artboard - Red Circle</title>
    <desc>Created with Sketch.</desc>
    <defs></defs>
    <g id="Page-1" stroke="none" stroke-width="1" fill="none" fill-rule="evenodd">
        <g id="Artboard---Red-Circle">
            <path d="M425.049676,849.041674 C659.268861,849.041674 849.141025,659.169509 849.141025,424.950324 C849.141025,190.731139 659.268861,0.858974734 425.049676,0.858974734 C190.830491,0.858974734 0.958326028,190.731139 0.958326028,424.950324 C0.958326028,659.169509 190.830491,849.041674 425.049676,849.041674 Z" id="Red-circle" fill="#D23333"></path>
            <g id="Le-Wagon-icon" transform="translate(148.000000, 254.000000)" fill="#FFFFFF">
                <path d="M126.678499,239.667762 C98.6149456,239.667762 75.9234204,262.360385 75.9234204,290.422841 C75.9234204,318.486394 98.6160426,341.177919 126.678499,341.177919 C154.740955,341.177919 177.433577,318.485297 177.433577,290.422841 C177.433577,262.360385 154.740955,239.667762 126.678499,239.667762 L126.678499,239.667762 Z M126.678499,317.680096 C111.505838,317.680096 99.018643,305.192901 99.018643,290.02024 C99.018643,274.84758 111.505838,262.360385 126.678499,262.360385 C141.851159,262.360385 154.338354,274.84758 154.338354,290.02024 C154.338354,305.595501 142.25376,317.680096 126.678499,317.680096 L126.678499,317.680096 Z" id="Back-wheel"></path>
                <path d="M421.004639,239.667762 C392.941086,239.667762 370.24956,262.360385 370.24956,290.422841 C370.24956,318.486394 392.942183,341.177919 421.004639,341.177919 C449.068192,341.177919 471.759717,318.485297 471.759717,290.422841 C471.760814,262.360385 449.068192,239.667762 421.004639,239.667762 L421.004639,239.667762 Z M421.004639,317.680096 C405.831978,317.680096 393.344783,305.192901 393.344783,290.02024 C393.344783,274.84758 405.831978,262.360385 421.004639,262.360385 C436.177299,262.360385 448.664495,274.84758 448.664495,290.02024 C448.665592,305.595501 436.178396,317.680096 421.004639,317.680096 L421.004639,317.680096 Z" id="Front-wheel"></path>
                <path d="M126.678499,229.462335 C160.515583,229.462335 187.639004,256.585756 187.639004,290.422841 L360.046327,290.422841 C360.046327,256.585756 387.169748,229.462335 421.006833,229.462335 C454.843917,229.462335 481.967338,256.585756 481.967338,290.422841 L545.209612,289.080108 C545.209612,289.080108 554.608741,285.992042 554.608741,267.730219 C554.608741,249.469492 542.121546,247.723062 542.121546,247.723062 L512.71526,247.320461 C512.71526,247.320461 508.808855,224.494005 484.651707,201.398782 C460.494559,178.30356 425.840232,178.30356 425.840232,178.30356 L6.773781,180.048893 L6.773781,262.895723 C6.773781,262.895723 0.597649173,259.270125 0.19504875,276.189216 C-0.20974568,292.705706 7.30911889,290.02024 7.30911889,290.02024 L65.7179933,290.422841 C65.7179933,256.500926 92.8414141,229.462335 126.678499,229.462335 Z" id="Bottom-frame"></path>
                <path d="M540.374019,162.729396 L538.091154,133.726807 C538.091154,133.726807 521.745223,80.3983375 482.537207,39.8475892 L488.753652,39.8475892 C470.872067,4.21981763 328.221136,2.24097186 277.601001,0.527499367 C226.039625,-1.2178338 33.4924074,12.0745622 14.425383,29.5300879 C5.96638615,37.0489524 7.30911889,48.1945118 7.30911889,48.1945118 L7.30911889,164.474729 L426.145189,164.474735 C426.145189,164.474735 464.335975,164.474735 493.646042,188.106386 C519.102625,208.631113 525.200261,239.801597 525.200261,239.801597 L540.372922,239.801597 L539.970321,193.879918 L546.683985,194.282518 C553.263814,184.078188 550.578349,166.220062 545.74495,162.729396 L540.374019,162.729396 Z M143.236675,135.068443 C143.236675,137.351308 141.491342,139.096641 139.208477,139.096641 L54.2137136,139.096641 C51.9308486,139.096641 50.1855154,137.351308 50.1855154,135.068443 L50.1855154,50.8788803 C50.1855154,48.5960152 51.9308486,46.8506821 54.2137136,46.8506821 L139.208477,46.8506821 C141.491342,46.8506821 143.236675,48.5960152 143.236675,50.8788803 L143.236675,135.068443 L143.236675,135.068443 Z M257.883453,135.47214 C257.883453,137.755005 256.13812,139.500338 253.855255,139.500338 L168.860492,139.500338 C166.577627,139.500338 164.832294,137.755005 164.832294,135.47214 L164.832294,51.2825777 C164.832294,48.9997127 166.577627,47.2543795 168.860492,47.2543795 L253.855255,47.2543795 C256.13812,47.2543795 257.883453,48.9997127 257.883453,51.2825777 L257.883453,135.47214 L257.883453,135.47214 Z M371.966244,135.47214 C371.966244,137.755005 370.220911,139.500338 367.938046,139.500338 L282.943283,139.500338 C280.660417,139.500338 278.915084,137.755005 278.915084,135.47214 L278.915084,51.2825777 C278.915084,48.9997127 280.660417,47.2543795 282.943283,47.2543795 L368.072977,47.2543795 C370.355842,47.2543795 372.101176,48.9997127 372.101176,51.2825777 L372.101176,135.47214 L371.966244,135.47214 L371.966244,135.47214 Z M398.490383,139.657207 C394.059584,139.657207 391.847245,139.070446 391.847245,134.684349 L391.847245,55.0538354 C391.847245,50.667738 391.464472,47.411251 395.895271,47.411251 L448.913387,47.411251 C478.722273,47.411251 512.155661,105.629391 512.155661,120.648978 C512.156758,135.270027 508.53116,139.65721 504.502961,139.65721 L398.490383,139.657207 Z" id="Top-Frame"></path>
            </g>
        </g>
    </g>
</svg>
